<svg width="64" height="65" viewBox="0 0 64 65" fill="none" xmlns="http://www.w3.org/2000/svg">
<rect x="1.33333" y="1.34395" width="61.3333" height="61.3333" rx="9.33333" fill="#F9FFF2" stroke="#D2EBD5" stroke-width="2.66667"/>
<rect width="48" height="48" transform="translate(8 8)" fill="#F9FFF2"/>
<g clip-path="url(#clip0_25_5633)">
<path d="M39.48 17.14H27.14C25.2512 17.14 23.72 18.6712 23.72 20.56V40.06C23.72 41.9488 25.2512 43.48 27.14 43.48H39.48C41.3688 43.48 42.9 41.9488 42.9 40.06V20.56C42.9 18.6712 41.3688 17.14 39.48 17.14Z" fill="white" stroke="black" stroke-width="2.28"/>
<path d="M35.9 20.72H23.56C21.6712 20.72 20.14 22.2512 20.14 24.14V43.64C20.14 45.5288 21.6712 47.06 23.56 47.06H35.9C37.7888 47.06 39.32 45.5288 39.32 43.64V24.14C39.32 22.2512 37.7888 20.72 35.9 20.72Z" fill="white" stroke="black" stroke-width="2.28"/>
<path d="M36 37.47H23.47C22.98 37.47 22.58 37.87 22.58 38.36C22.58 38.85 22.98 39.25 23.47 39.25H35.99C36.48 39.25 36.88 38.85 36.88 38.36C36.88 37.87 36.48 37.47 35.99 37.47H36Z" fill="black"/>
<path d="M32.42 41.04H23.47C22.98 41.04 22.58 41.44 22.58 41.93C22.58 42.42 22.98 42.82 23.47 42.82H32.41C32.9 42.82 33.3 42.42 33.3 41.93C33.3 41.44 32.9 41.04 32.41 41.04H32.42Z" fill="black"/>
<path d="M33.94 32.58C33.92 32.13 33.72 31.45 33.47 30.99C33.18 30.46 32.84 30.05 32.29 29.6C32.8 29.05 33 28.74 33.2 28.18C33.43 27.54 33.47 26.72 33.3 26.05C33.1 25.26 32.59 24.49 31.94 24C31.41 23.6 30.77 23.35 30.11 23.27C29.75 23.23 29.65 23.23 29.29 23.27C28.67 23.34 28.02 23.61 27.5 24C26.26 24.94 25.74 26.57 26.21 28.07C26.39 28.65 26.62 29.03 27.16 29.6C26.99 29.74 26.81 29.9 26.72 29.98C26.27 30.43 25.87 31.1 25.67 31.72C25.51 32.23 25.49 32.48 25.48 33.45C25.48 33.56 25.48 33.68 25.48 33.81C25.48 33.94 25.48 34.06 25.48 34.17C25.48 35.06 25.5 35.11 25.64 35.3C25.7 35.39 25.81 35.49 25.89 35.55C26.0366 35.6567 27.2733 35.7133 29.6 35.72C30.04 35.72 30.58 35.72 31.1 35.72C32.09 35.72 33.03 35.72 33.12 35.7C33.47 35.65 33.79 35.39 33.89 35.08C34 34.92 34 34.63 34 33.76C34 33.05 34 32.74 33.93 32.56L33.94 32.58ZM28.47 25.71C28.68 25.5 28.73 25.46 28.9 25.38C29.03 25.32 29.22 25.24 29.31 25.22C29.4 25.2 29.47 25.18 29.61 25.18C29.65 25.18 29.7 25.18 29.76 25.18C30.27 25.2 30.59 25.34 30.95 25.7C31.3 26.05 31.46 26.45 31.46 26.94C31.46 27.65 31.11 28.21 30.48 28.52C29.93 28.79 29.34 28.78 28.82 28.47C28.25 28.14 27.9 27.49 27.94 26.85C27.96 26.56 28.01 26.39 28.14 26.12C28.22 25.97 28.26 25.9 28.46 25.7L28.47 25.71ZM27.4 33.48C27.4 32.64 27.43 32.48 27.54 32.16C27.82 31.39 28.55 30.8 29.39 30.67C29.47 30.66 29.66 30.65 29.8 30.67C30.83 30.72 31.67 31.4 31.94 32.42C31.98 32.58 31.99 32.68 32.01 33.43V33.8H27.4V33.49V33.48Z" fill="black"/>
</g>
<defs>
<clipPath id="clip0_25_5633">
<rect width="25.05" height="32.2" fill="white" transform="translate(19 16)"/>
</clipPath>
</defs>
</svg>
