<svg width="64" height="65" viewBox="0 0 64 65" fill="none" xmlns="http://www.w3.org/2000/svg">
<rect x="1.33333" y="1.34395" width="61.3333" height="61.3333" rx="9.33333" fill="#F9FFF2" stroke="#D2EBD5" stroke-width="2.66667"/>
<rect width="48" height="48" transform="translate(8 8.01062)" fill="#F9FFF2"/>
<g clip-path="url(#clip0_25_5656)">
<path fill-rule="evenodd" clip-rule="evenodd" d="M38.5721 15.0742C38.4465 15.1145 38.2468 15.2126 38.1283 15.2921C37.7269 15.5614 37.6167 15.761 37.2226 16.9325C36.7266 18.4066 36.704 18.8152 37.087 19.3792C37.2948 19.6852 37.5343 19.8745 37.9043 20.0251C38.1395 20.1209 38.1969 20.1657 38.1849 20.2441C38.1766 20.2984 38.0628 20.6628 37.9319 21.054L37.6939 21.7653L36.5956 21.7771C35.3657 21.7904 34.8031 21.8534 34.4712 22.0152C34.0518 22.2197 33.873 22.6937 34.0594 23.1068C34.2747 23.584 34.6081 23.7334 35.2832 23.655C37.6451 23.381 40.0274 23.8012 42.179 24.8715C43.4045 25.481 44.2623 26.0893 45.2504 27.0494C46.1902 27.9626 46.8782 28.8536 47.4706 29.925C48.2105 31.2632 48.7444 32.9139 48.9338 34.4487C49.0006 34.9901 49.0007 36.6893 48.9339 37.275C48.6893 39.4227 47.7969 41.6024 46.4161 43.425C46.0176 43.951 45.0215 44.967 44.4564 45.4237C43.0333 46.5741 41.0695 47.519 39.3261 47.8922C37.9842 48.1795 36.3955 48.2491 35.0968 48.0775C32.6142 47.7495 30.3241 46.6853 28.3713 44.9524C26.583 43.3655 25.1479 40.8518 24.6443 38.425C24.4241 37.3633 24.3971 37.0134 24.4245 35.5711C24.4475 34.3626 24.4637 34.1611 24.5831 33.6C25.0167 31.5637 25.7443 29.9617 26.978 28.327C27.4359 27.7203 28.6552 26.5274 29.3158 26.0397C30.3313 25.2902 31.3466 24.7358 32.4667 24.3194C33.1246 24.0749 33.3924 23.8483 33.4455 23.4912C33.5258 22.9522 33.133 22.4477 32.628 22.4413C32.2696 22.4367 31.4664 22.7316 30.372 23.2696L29.8015 23.55H27.6783H25.555L25.3281 23.7059C24.7992 24.0694 24.782 24.7713 25.2917 25.191L25.4847 25.35H26.3492C26.8247 25.35 27.2137 25.3582 27.2137 25.3683C27.2137 25.3784 26.9715 25.6316 26.6756 25.9309C25.487 27.1331 24.425 28.6827 23.7809 30.1545L23.5423 30.7L21.9119 30.7022C20.2033 30.7044 19.9297 30.7271 19.7131 30.8847C19.4273 31.0925 19.2812 31.5964 19.4087 31.9342C19.4877 32.1436 19.7528 32.3943 19.954 32.4502C20.0516 32.4773 20.7703 32.4995 21.5512 32.4997L22.971 32.5L22.9405 32.6375C22.7312 33.5837 22.5588 34.9892 22.5591 35.7462C22.5593 36.2404 22.6414 37.5421 22.6844 37.733L22.7087 37.841L20.0687 37.8586C17.6777 37.8746 17.4135 37.8844 17.2686 37.963C16.6916 38.276 16.6582 39.0997 17.2065 39.4965L17.4186 39.65H18.9045C19.7218 39.65 20.9967 39.6647 21.7377 39.6827L23.0849 39.7154L23.2751 40.2952C23.757 41.7639 24.7136 43.5276 25.6576 44.6875L25.9119 45L23.9226 45.0016L21.9333 45.0033L21.733 45.1399C21.4958 45.3017 21.3076 45.6434 21.3076 45.9126C21.3076 46.2708 21.5868 46.6579 21.9124 46.7512C22.0141 46.7803 23.2198 46.8 24.9066 46.8H27.7304L28.1102 47.0932C30.056 48.5954 32.5081 49.5758 35.1468 49.9068C35.8854 49.9994 37.6644 49.9857 38.4252 49.8815C40.1552 49.6446 41.6645 49.1747 43.1521 48.4098C49.0003 45.403 52.0032 38.7693 50.3881 32.425C49.5576 29.1628 47.506 26.1879 44.8006 24.323C44.5287 24.1355 44.2983 23.9763 44.2885 23.9692C44.2711 23.9565 44.7786 22.3944 44.8129 22.3548C44.8225 22.3438 44.9994 22.3745 45.206 22.4231C45.9187 22.5907 46.5912 22.3453 46.9847 21.7739C47.2105 21.4462 47.8849 19.3755 47.8849 19.0102C47.8849 18.5063 47.5812 17.9396 47.1628 17.6628C46.8784 17.4746 44.2868 16.6 44.0136 16.6C43.6813 16.6 43.2992 16.8603 43.1834 17.1657C43.0587 17.4947 43.1857 17.9792 43.4516 18.1881C43.5253 18.246 44.1377 18.4772 44.8126 18.7019C45.5807 18.9577 46.0318 19.1319 46.0187 19.1677C46.0071 19.1992 45.8921 19.5426 45.7631 19.9309L45.5286 20.6369L44.5671 20.3259C40.2482 18.9293 38.6756 18.3907 38.6789 18.3094C38.6855 18.1501 39.1522 16.875 39.2016 16.8814C39.2288 16.885 39.7578 17.0502 40.3772 17.2486C41.6844 17.6674 41.9754 17.7145 42.2617 17.5537C42.6795 17.3192 42.839 16.8072 42.6292 16.3742C42.5663 16.2446 42.4469 16.0984 42.3614 16.0464C42.2765 15.9948 41.5983 15.7501 40.8541 15.5026C39.3677 15.008 38.9954 14.9381 38.5721 15.0742ZM39.731 21.3594C39.5076 22.0357 39.5077 22.0971 39.7321 22.0992C39.9198 22.101 41.2976 22.5252 41.9342 22.7771C42.3134 22.9272 42.6353 23.05 42.6497 23.05C42.6991 23.05 43.0817 21.7817 43.0433 21.7454C43.0222 21.7254 42.3292 21.4906 41.5034 21.2235C40.6775 20.9565 39.9894 20.7309 39.9743 20.7222C39.9591 20.7135 39.8497 21.0002 39.731 21.3594ZM17.1033 24.196C16.8138 24.238 16.6496 24.3496 16.5086 24.6002C16.2773 25.0112 16.3987 25.5834 16.7712 25.8383L16.9343 25.95H19.8283C22.6586 25.95 22.7259 25.9477 22.8883 25.8475C23.1519 25.6847 23.284 25.4268 23.2841 25.075C23.2841 24.5805 23.0345 24.2711 22.5745 24.1955C22.288 24.1484 17.4282 24.1489 17.1033 24.196ZM35.2219 24.7729C33.7276 24.9903 32.3739 25.4466 31.1677 26.1397C28.3591 27.7536 26.3918 30.437 25.7351 33.55C25.5077 34.6277 25.4428 36.2459 25.5845 37.3C25.8699 39.4236 26.7526 41.4517 28.0783 43.0301C30.1142 45.4541 32.889 46.8504 36.0648 47.049C40.5494 47.3294 44.8224 44.8098 46.7894 40.725C48.6436 36.8745 48.1148 32.2305 45.4403 28.8782C43.7568 26.768 41.2983 25.3184 38.6004 24.8453C37.8191 24.7083 35.9427 24.6681 35.2219 24.7729ZM35.0968 26.6254C34.1703 26.7961 33.3659 27.0624 32.5356 27.4734C31.9255 27.7754 31.1733 28.2391 30.9309 28.4627L30.8192 28.5657L31.1445 28.9288C31.5342 29.3637 31.6175 29.5121 31.6179 29.7717C31.6186 30.2226 31.2496 30.6361 30.8016 30.6866C30.5167 30.7187 30.3423 30.6275 29.8587 30.194L29.4756 29.8506L29.1535 30.2878C28.2169 31.5587 27.5608 33.1649 27.3869 34.6125L27.3523 34.9H27.9247H28.497L28.7127 35.0844C28.9602 35.2961 29.0656 35.5097 29.0656 35.8C29.0656 36.0902 28.9602 36.3039 28.7127 36.5155L28.497 36.7H27.9137H27.3303L27.3716 37.0125C27.5869 38.6413 28.1643 40.1087 29.1033 41.4129L29.3826 41.8007L29.7371 41.4578C30.1501 41.0583 30.3366 40.95 30.6114 40.95C31.2628 40.95 31.6947 41.5809 31.4477 42.1715C31.409 42.2641 31.2166 42.5088 31.0202 42.7154L30.6631 43.0909L30.953 43.3136C32.1352 44.2215 33.6087 44.8672 35.0968 45.1293C35.7553 45.2453 35.7224 45.2612 35.7224 44.8274C35.7224 44.1076 35.8532 43.7884 36.2257 43.5986C36.6525 43.381 37.205 43.5449 37.4117 43.9503C37.5075 44.1382 37.5243 44.2503 37.5243 44.7016V45.2321L37.8621 45.1917C39.4334 45.0039 41.005 44.3727 42.3132 43.404L42.6226 43.175L42.19 42.725C41.9521 42.4775 40.8574 41.3688 39.7573 40.2613L37.7572 38.2477L37.5042 38.3316C37.3651 38.3778 37.1302 38.4289 36.9822 38.4453L36.7132 38.475L36.474 39.0872C36.1946 39.8023 36.1344 39.9044 35.9127 40.0389C35.5674 40.2485 35.174 40.2215 34.872 39.9677C34.487 39.6441 34.4676 39.2815 34.7898 38.4283L35.015 37.8317L34.7654 37.5589C33.9309 36.6467 33.8936 35.2122 34.6793 34.2486L34.9032 33.9739L34.1309 31.8994C33.7061 30.7585 33.3473 29.7432 33.3335 29.6433C33.2639 29.1406 33.7012 28.6522 34.2209 28.6522C34.4698 28.6522 34.7865 28.8104 34.9242 29.0037C34.9891 29.0946 35.3827 30.0816 35.7991 31.197L36.556 33.225L36.9767 33.2851C37.208 33.3182 37.4934 33.3819 37.6109 33.4267L37.8245 33.5082L40.2766 31.0916L42.7288 28.675L42.5966 28.575C41.2177 27.5319 40.0091 26.9703 38.5003 26.6713C37.6073 26.4944 37.6745 26.4687 37.6741 26.9875C37.674 27.2281 37.6506 27.5087 37.6222 27.6109C37.4102 28.3734 36.3273 28.4568 35.9787 27.7375C35.8929 27.5605 35.8726 27.4254 35.8726 27.0342V26.55L35.6599 26.5554C35.5429 26.5584 35.2895 26.5898 35.0968 26.6254ZM14.7759 28.0467C14.3921 28.1401 14.1457 28.3618 14.0422 28.7067C13.9679 28.9545 14.0456 29.2344 14.255 29.4726C14.5557 29.8147 14.4335 29.8052 18.3296 29.7893L21.8331 29.775L22.0589 29.6424C22.5845 29.3337 22.663 28.6988 22.2255 28.2932C21.8933 27.9851 22.0871 27.9995 18.3446 28.0051C16.4644 28.0079 14.8585 28.0266 14.7759 28.0467ZM41.5225 32.4141L39.0891 34.825L39.1883 35.1C39.3272 35.4847 39.3245 36.2059 39.1827 36.6493L39.079 36.9737L39.7656 37.674C40.1433 38.0592 41.2341 39.1659 42.1897 40.1333L43.9271 41.8922L44.1734 41.5586C44.5884 40.9964 44.8285 40.6008 45.1351 39.9739C46.3901 37.4077 46.3973 34.4464 45.1552 31.8143C44.8245 31.1137 44.1056 29.996 43.9892 30.0016C43.9709 30.0024 42.8608 31.0881 41.5225 32.4141ZM14.7738 34.394C14.5229 34.5078 14.3195 34.7434 14.2503 35.0004C14.1531 35.361 14.3228 35.7207 14.6927 35.9379L14.9261 36.075L17.4131 36.09C19.8141 36.1046 19.9068 36.1017 20.0956 36.0055C20.3336 35.8842 20.5948 35.5968 20.6354 35.4116C20.6518 35.3364 20.6733 35.2485 20.6832 35.2162C20.7208 35.0922 20.593 34.7849 20.4278 34.6022C20.3106 34.4727 20.1843 34.3937 20.0336 34.3558C19.8852 34.3185 19.0107 34.3003 17.3939 34.3011C15.1564 34.3021 14.961 34.309 14.7738 34.394ZM36.5189 35.0972C35.671 35.3573 35.7605 36.5376 36.6356 36.6362C37.45 36.7279 37.8122 35.6007 37.0987 35.1951C36.9048 35.085 36.6818 35.0473 36.5189 35.0972ZM17.5287 41.5448C17.1715 41.71 16.9531 42.0225 16.9531 42.3684C16.9531 42.6172 17.2006 42.9655 17.4698 43.0957C17.6868 43.2006 17.7778 43.2071 19.39 43.2332C20.4198 43.2499 21.2356 43.2407 21.4737 43.2097C22.0622 43.1332 22.3617 42.8864 22.437 42.4159C22.4951 42.0529 22.1748 41.6148 21.769 41.5022C21.6556 41.4707 20.8306 41.4509 19.6559 41.4514C17.8867 41.4521 17.7125 41.4598 17.5287 41.5448Z" fill="black"/>
</g>
<defs>
<clipPath id="clip0_25_5656">
<rect width="36.8378" height="35" fill="white" transform="translate(14 15)"/>
</clipPath>
</defs>
</svg>
