<svg width="64" height="65" viewBox="0 0 64 65" fill="none" xmlns="http://www.w3.org/2000/svg">
<rect x="1.33333" y="1.34395" width="61.3333" height="61.3333" rx="9.33333" fill="#F9FFF2" stroke="#D2EBD5" stroke-width="2.66667"/>
<rect width="48" height="48" transform="translate(7.91669 8.01062)" fill="#F9FFF2"/>
<mask id="path-2-outside-1_25_5649" maskUnits="userSpaceOnUse" x="12.9167" y="15.0106" width="38" height="32" fill="black">
<rect fill="white" x="12.9167" y="15.0106" width="38" height="32"/>
<path fill-rule="evenodd" clip-rule="evenodd" d="M16.4746 16.1418C15.3196 16.4687 14.3688 17.4175 14.047 18.5644C13.9249 18.9999 13.9167 19.3917 13.9167 24.7752C13.9167 28.6905 13.9414 30.6386 13.9941 30.8894C14.2637 32.1711 15.3899 33.2756 16.7087 33.5519C16.9704 33.6067 17.3742 33.6529 17.6062 33.6547L18.0278 33.6579L19.1171 35.5457C19.7162 36.5839 20.2821 37.5051 20.3747 37.5928C20.6133 37.8185 21.0747 37.8138 21.3036 37.5832C21.3958 37.4903 21.9615 36.5687 22.5606 35.5353L23.6499 33.6563L23.9134 33.6551L24.1769 33.6539V36.2441C24.1769 38.3459 24.1972 38.9113 24.2845 39.2426C24.5838 40.3785 25.4359 41.2936 26.5588 41.6855L27.0231 41.8475L32.2419 41.8489L37.4608 41.8504L37.6926 42.215C37.8201 42.4156 38.3493 43.3096 38.8685 44.2017C39.8229 45.8414 39.9659 46.0181 40.3403 46.0181C40.7147 46.0181 40.8577 45.8414 41.8122 44.2017C42.3314 43.3096 42.8605 42.4156 42.988 42.215L43.2198 41.8504L45.1358 41.8489C46.961 41.8475 47.0736 41.8398 47.5159 41.6855C48.6313 41.2963 49.491 40.3779 49.7853 39.2612C49.8724 38.9306 49.8924 37.3554 49.9167 28.8824C49.9167 27.2634 49.904 27.2634 49.904 27.2634C49.904 27.2634 49.8394 27.1009 49.8109 26.9448C49.7825 26.7886 49.6494 26.444 49.5153 26.1788C49.1043 25.3669 48.3905 24.7467 47.5159 24.4415C47.0523 24.2798 47.0462 24.2795 43.3446 24.278L39.6376 24.2766V21.6529C39.6376 18.7154 39.6076 18.4788 39.1382 17.7078C38.8506 17.2354 38.2022 16.6241 37.7466 16.3959C37.0071 16.0255 36.8307 16.0106 33.183 16.0106C30.7141 16.0106 29.756 16.0329 29.6213 16.0936C29.4199 16.1843 29.2368 16.4756 29.2368 16.7052C29.2368 16.9064 29.4165 17.2316 29.568 17.3046C29.6371 17.3379 31.2589 17.3808 33.1722 17.3999C36.5446 17.4335 36.6608 17.4392 36.9775 17.5839C37.3944 17.7743 37.8094 18.1846 38.0266 18.6208L38.1969 18.9627V24.8323V30.7018L38.0097 31.0491C37.7691 31.4955 37.3752 31.8687 36.9319 32.0702L36.5806 32.2299L29.7482 32.2647C23.0321 32.2988 22.9134 32.3018 22.7785 32.4383C22.703 32.5147 22.2408 33.2649 21.7514 34.1054C21.2619 34.9459 20.8542 35.6408 20.8454 35.6498C20.8365 35.6588 20.4089 34.9461 19.895 34.0661C19.3812 33.1861 18.8931 32.4244 18.8105 32.3735C18.7182 32.3166 18.3285 32.2658 17.7998 32.2415C17.1431 32.2115 16.8603 32.1676 16.6051 32.0563C16.1819 31.8716 15.7845 31.4943 15.5446 31.0491L15.3573 30.7018V24.8323C15.3573 18.9734 15.3576 18.9622 15.5084 18.6398C15.7011 18.2278 16.1161 17.8176 16.5574 17.6029L16.9034 17.4346L20.382 17.3999C22.2953 17.3808 23.9172 17.3379 23.9863 17.3046C24.1378 17.2316 24.3175 16.9064 24.3175 16.7052C24.3175 16.4756 24.1343 16.1843 23.9329 16.0936C23.7976 16.0326 22.8393 16.0119 20.326 16.0156C17.2889 16.0199 16.8551 16.0342 16.4746 16.1418ZM26.4335 16.1076C25.8243 16.4414 26.0791 17.3999 26.7771 17.3999C27.1332 17.3999 27.4799 17.0605 27.4799 16.712C27.4799 16.1905 26.8968 15.8537 26.4335 16.1076ZM13.9503 24.7975C13.9503 28.0449 13.9589 29.3632 13.9694 27.7271C13.9799 26.091 13.9799 23.4341 13.9694 21.8228C13.9589 20.2116 13.9503 21.5502 13.9503 24.7975ZM19.2576 22.5741C18.5777 22.7935 17.8995 23.5205 17.7018 24.2418C17.5942 24.6343 17.6635 25.3591 17.8492 25.784C18.0395 26.2196 18.6254 26.7914 19.0994 27.0043C19.3576 27.1203 19.5687 27.1543 20.0307 27.1543C20.7657 27.1543 21.1301 27.0093 21.675 26.4999C22.214 25.996 22.3824 25.5914 22.3838 24.7975C22.3848 24.2162 22.368 24.1415 22.1438 23.733C21.8767 23.2459 21.5165 22.9045 21.0241 22.6717C20.6073 22.4747 19.7182 22.4255 19.2576 22.5741ZM26.0041 22.5741C25.3242 22.7935 24.6459 23.5205 24.4483 24.2418C24.3407 24.6343 24.41 25.3591 24.5956 25.784C24.786 26.2196 25.3718 26.7914 25.8459 27.0043C26.1041 27.1203 26.3151 27.1543 26.7771 27.1543C27.5122 27.1543 27.8765 27.0093 28.4214 26.4999C28.9604 25.996 29.1289 25.5914 29.1303 24.7975C29.1313 24.2162 29.1144 24.1415 28.8903 23.733C28.6231 23.2459 28.263 22.9045 27.7705 22.6717C27.3538 22.4747 26.4647 22.4255 26.0041 22.5741ZM32.7505 22.5741C32.0706 22.7935 31.3924 23.5205 31.1947 24.2418C31.0871 24.6343 31.1564 25.3591 31.3421 25.784C31.5325 26.2196 32.1183 26.7914 32.5924 27.0043C32.8505 27.1203 33.0616 27.1543 33.5236 27.1543C34.2587 27.1543 34.623 27.0093 35.1679 26.4999C35.7069 25.996 35.8753 25.5914 35.8768 24.7975C35.8777 24.2162 35.8609 24.1415 35.6368 23.733C35.3696 23.2459 35.0094 22.9045 34.517 22.6717C34.1003 22.4747 33.2111 22.4255 32.7505 22.5741ZM19.5601 23.9957C18.9487 24.3642 18.8913 25.1577 19.4458 25.5757C19.9565 25.9607 20.7485 25.7312 20.9455 25.1411C21.2237 24.308 20.3038 23.5474 19.5601 23.9957ZM26.3066 23.9957C25.6952 24.3642 25.6377 25.1577 26.1923 25.5757C26.7029 25.9607 27.4949 25.7312 27.692 25.1411C27.9701 24.308 27.0503 23.5474 26.3066 23.9957ZM33.053 23.9957C32.4416 24.3642 32.3842 25.1577 32.9387 25.5757C33.4494 25.9607 34.2414 25.7312 34.4384 25.1411C34.7166 24.308 33.7967 23.5474 33.053 23.9957ZM39.6376 28.0912C39.6376 29.5918 39.608 30.6621 39.5601 30.8894C39.3643 31.8202 38.6285 32.7746 37.7591 33.2252C36.9392 33.6501 36.9205 33.6514 30.9729 33.6527L25.5761 33.6539L25.5968 36.2761L25.6176 38.8983L25.8136 39.2929C26.0262 39.7208 26.3313 40.0239 26.7967 40.2697L27.0934 40.4264L32.6132 40.4611C37.5594 40.4923 38.1509 40.5076 38.3055 40.609C38.4025 40.6727 38.8776 41.4093 39.3916 42.2931C39.8941 43.157 40.321 43.8639 40.3403 43.8639C40.3596 43.8639 40.7866 43.157 41.289 42.2931C41.8018 41.4114 42.2782 40.6726 42.3749 40.609C42.522 40.5125 42.8725 40.4908 44.7643 40.4611C46.8959 40.4277 46.9928 40.4204 47.278 40.2697C47.7434 40.0239 48.0485 39.7208 48.2611 39.2929L48.4571 38.8983V33.0635C48.4571 27.2775 48.4559 27.226 48.3091 26.9126C48.1016 26.4691 47.7573 26.1052 47.3391 25.8871L46.9813 25.7005L43.3094 25.6808L39.6376 25.6611V28.0912Z"/>
</mask>
<path fill-rule="evenodd" clip-rule="evenodd" d="M16.4746 16.1418C15.3196 16.4687 14.3688 17.4175 14.047 18.5644C13.9249 18.9999 13.9167 19.3917 13.9167 24.7752C13.9167 28.6905 13.9414 30.6386 13.9941 30.8894C14.2637 32.1711 15.3899 33.2756 16.7087 33.5519C16.9704 33.6067 17.3742 33.6529 17.6062 33.6547L18.0278 33.6579L19.1171 35.5457C19.7162 36.5839 20.2821 37.5051 20.3747 37.5928C20.6133 37.8185 21.0747 37.8138 21.3036 37.5832C21.3958 37.4903 21.9615 36.5687 22.5606 35.5353L23.6499 33.6563L23.9134 33.6551L24.1769 33.6539V36.2441C24.1769 38.3459 24.1972 38.9113 24.2845 39.2426C24.5838 40.3785 25.4359 41.2936 26.5588 41.6855L27.0231 41.8475L32.2419 41.8489L37.4608 41.8504L37.6926 42.215C37.8201 42.4156 38.3493 43.3096 38.8685 44.2017C39.8229 45.8414 39.9659 46.0181 40.3403 46.0181C40.7147 46.0181 40.8577 45.8414 41.8122 44.2017C42.3314 43.3096 42.8605 42.4156 42.988 42.215L43.2198 41.8504L45.1358 41.8489C46.961 41.8475 47.0736 41.8398 47.5159 41.6855C48.6313 41.2963 49.491 40.3779 49.7853 39.2612C49.8724 38.9306 49.8924 37.3554 49.9167 28.8824C49.9167 27.2634 49.904 27.2634 49.904 27.2634C49.904 27.2634 49.8394 27.1009 49.8109 26.9448C49.7825 26.7886 49.6494 26.444 49.5153 26.1788C49.1043 25.3669 48.3905 24.7467 47.5159 24.4415C47.0523 24.2798 47.0462 24.2795 43.3446 24.278L39.6376 24.2766V21.6529C39.6376 18.7154 39.6076 18.4788 39.1382 17.7078C38.8506 17.2354 38.2022 16.6241 37.7466 16.3959C37.0071 16.0255 36.8307 16.0106 33.183 16.0106C30.7141 16.0106 29.756 16.0329 29.6213 16.0936C29.4199 16.1843 29.2368 16.4756 29.2368 16.7052C29.2368 16.9064 29.4165 17.2316 29.568 17.3046C29.6371 17.3379 31.2589 17.3808 33.1722 17.3999C36.5446 17.4335 36.6608 17.4392 36.9775 17.5839C37.3944 17.7743 37.8094 18.1846 38.0266 18.6208L38.1969 18.9627V24.8323V30.7018L38.0097 31.0491C37.7691 31.4955 37.3752 31.8687 36.9319 32.0702L36.5806 32.2299L29.7482 32.2647C23.0321 32.2988 22.9134 32.3018 22.7785 32.4383C22.703 32.5147 22.2408 33.2649 21.7514 34.1054C21.2619 34.9459 20.8542 35.6408 20.8454 35.6498C20.8365 35.6588 20.4089 34.9461 19.895 34.0661C19.3812 33.1861 18.8931 32.4244 18.8105 32.3735C18.7182 32.3166 18.3285 32.2658 17.7998 32.2415C17.1431 32.2115 16.8603 32.1676 16.6051 32.0563C16.1819 31.8716 15.7845 31.4943 15.5446 31.0491L15.3573 30.7018V24.8323C15.3573 18.9734 15.3576 18.9622 15.5084 18.6398C15.7011 18.2278 16.1161 17.8176 16.5574 17.6029L16.9034 17.4346L20.382 17.3999C22.2953 17.3808 23.9172 17.3379 23.9863 17.3046C24.1378 17.2316 24.3175 16.9064 24.3175 16.7052C24.3175 16.4756 24.1343 16.1843 23.9329 16.0936C23.7976 16.0326 22.8393 16.0119 20.326 16.0156C17.2889 16.0199 16.8551 16.0342 16.4746 16.1418ZM26.4335 16.1076C25.8243 16.4414 26.0791 17.3999 26.7771 17.3999C27.1332 17.3999 27.4799 17.0605 27.4799 16.712C27.4799 16.1905 26.8968 15.8537 26.4335 16.1076ZM13.9503 24.7975C13.9503 28.0449 13.9589 29.3632 13.9694 27.7271C13.9799 26.091 13.9799 23.4341 13.9694 21.8228C13.9589 20.2116 13.9503 21.5502 13.9503 24.7975ZM19.2576 22.5741C18.5777 22.7935 17.8995 23.5205 17.7018 24.2418C17.5942 24.6343 17.6635 25.3591 17.8492 25.784C18.0395 26.2196 18.6254 26.7914 19.0994 27.0043C19.3576 27.1203 19.5687 27.1543 20.0307 27.1543C20.7657 27.1543 21.1301 27.0093 21.675 26.4999C22.214 25.996 22.3824 25.5914 22.3838 24.7975C22.3848 24.2162 22.368 24.1415 22.1438 23.733C21.8767 23.2459 21.5165 22.9045 21.0241 22.6717C20.6073 22.4747 19.7182 22.4255 19.2576 22.5741ZM26.0041 22.5741C25.3242 22.7935 24.6459 23.5205 24.4483 24.2418C24.3407 24.6343 24.41 25.3591 24.5956 25.784C24.786 26.2196 25.3718 26.7914 25.8459 27.0043C26.1041 27.1203 26.3151 27.1543 26.7771 27.1543C27.5122 27.1543 27.8765 27.0093 28.4214 26.4999C28.9604 25.996 29.1289 25.5914 29.1303 24.7975C29.1313 24.2162 29.1144 24.1415 28.8903 23.733C28.6231 23.2459 28.263 22.9045 27.7705 22.6717C27.3538 22.4747 26.4647 22.4255 26.0041 22.5741ZM32.7505 22.5741C32.0706 22.7935 31.3924 23.5205 31.1947 24.2418C31.0871 24.6343 31.1564 25.3591 31.3421 25.784C31.5325 26.2196 32.1183 26.7914 32.5924 27.0043C32.8505 27.1203 33.0616 27.1543 33.5236 27.1543C34.2587 27.1543 34.623 27.0093 35.1679 26.4999C35.7069 25.996 35.8753 25.5914 35.8768 24.7975C35.8777 24.2162 35.8609 24.1415 35.6368 23.733C35.3696 23.2459 35.0094 22.9045 34.517 22.6717C34.1003 22.4747 33.2111 22.4255 32.7505 22.5741ZM19.5601 23.9957C18.9487 24.3642 18.8913 25.1577 19.4458 25.5757C19.9565 25.9607 20.7485 25.7312 20.9455 25.1411C21.2237 24.308 20.3038 23.5474 19.5601 23.9957ZM26.3066 23.9957C25.6952 24.3642 25.6377 25.1577 26.1923 25.5757C26.7029 25.9607 27.4949 25.7312 27.692 25.1411C27.9701 24.308 27.0503 23.5474 26.3066 23.9957ZM33.053 23.9957C32.4416 24.3642 32.3842 25.1577 32.9387 25.5757C33.4494 25.9607 34.2414 25.7312 34.4384 25.1411C34.7166 24.308 33.7967 23.5474 33.053 23.9957ZM39.6376 28.0912C39.6376 29.5918 39.608 30.6621 39.5601 30.8894C39.3643 31.8202 38.6285 32.7746 37.7591 33.2252C36.9392 33.6501 36.9205 33.6514 30.9729 33.6527L25.5761 33.6539L25.5968 36.2761L25.6176 38.8983L25.8136 39.2929C26.0262 39.7208 26.3313 40.0239 26.7967 40.2697L27.0934 40.4264L32.6132 40.4611C37.5594 40.4923 38.1509 40.5076 38.3055 40.609C38.4025 40.6727 38.8776 41.4093 39.3916 42.2931C39.8941 43.157 40.321 43.8639 40.3403 43.8639C40.3596 43.8639 40.7866 43.157 41.289 42.2931C41.8018 41.4114 42.2782 40.6726 42.3749 40.609C42.522 40.5125 42.8725 40.4908 44.7643 40.4611C46.8959 40.4277 46.9928 40.4204 47.278 40.2697C47.7434 40.0239 48.0485 39.7208 48.2611 39.2929L48.4571 38.8983V33.0635C48.4571 27.2775 48.4559 27.226 48.3091 26.9126C48.1016 26.4691 47.7573 26.1052 47.3391 25.8871L46.9813 25.7005L43.3094 25.6808L39.6376 25.6611V28.0912Z" fill="black"/>
<path fill-rule="evenodd" clip-rule="evenodd" d="M16.4746 16.1418C15.3196 16.4687 14.3688 17.4175 14.047 18.5644C13.9249 18.9999 13.9167 19.3917 13.9167 24.7752C13.9167 28.6905 13.9414 30.6386 13.9941 30.8894C14.2637 32.1711 15.3899 33.2756 16.7087 33.5519C16.9704 33.6067 17.3742 33.6529 17.6062 33.6547L18.0278 33.6579L19.1171 35.5457C19.7162 36.5839 20.2821 37.5051 20.3747 37.5928C20.6133 37.8185 21.0747 37.8138 21.3036 37.5832C21.3958 37.4903 21.9615 36.5687 22.5606 35.5353L23.6499 33.6563L23.9134 33.6551L24.1769 33.6539V36.2441C24.1769 38.3459 24.1972 38.9113 24.2845 39.2426C24.5838 40.3785 25.4359 41.2936 26.5588 41.6855L27.0231 41.8475L32.2419 41.8489L37.4608 41.8504L37.6926 42.215C37.8201 42.4156 38.3493 43.3096 38.8685 44.2017C39.8229 45.8414 39.9659 46.0181 40.3403 46.0181C40.7147 46.0181 40.8577 45.8414 41.8122 44.2017C42.3314 43.3096 42.8605 42.4156 42.988 42.215L43.2198 41.8504L45.1358 41.8489C46.961 41.8475 47.0736 41.8398 47.5159 41.6855C48.6313 41.2963 49.491 40.3779 49.7853 39.2612C49.8724 38.9306 49.8924 37.3554 49.9167 28.8824C49.9167 27.2634 49.904 27.2634 49.904 27.2634C49.904 27.2634 49.8394 27.1009 49.8109 26.9448C49.7825 26.7886 49.6494 26.444 49.5153 26.1788C49.1043 25.3669 48.3905 24.7467 47.5159 24.4415C47.0523 24.2798 47.0462 24.2795 43.3446 24.278L39.6376 24.2766V21.6529C39.6376 18.7154 39.6076 18.4788 39.1382 17.7078C38.8506 17.2354 38.2022 16.6241 37.7466 16.3959C37.0071 16.0255 36.8307 16.0106 33.183 16.0106C30.7141 16.0106 29.756 16.0329 29.6213 16.0936C29.4199 16.1843 29.2368 16.4756 29.2368 16.7052C29.2368 16.9064 29.4165 17.2316 29.568 17.3046C29.6371 17.3379 31.2589 17.3808 33.1722 17.3999C36.5446 17.4335 36.6608 17.4392 36.9775 17.5839C37.3944 17.7743 37.8094 18.1846 38.0266 18.6208L38.1969 18.9627V24.8323V30.7018L38.0097 31.0491C37.7691 31.4955 37.3752 31.8687 36.9319 32.0702L36.5806 32.2299L29.7482 32.2647C23.0321 32.2988 22.9134 32.3018 22.7785 32.4383C22.703 32.5147 22.2408 33.2649 21.7514 34.1054C21.2619 34.9459 20.8542 35.6408 20.8454 35.6498C20.8365 35.6588 20.4089 34.9461 19.895 34.0661C19.3812 33.1861 18.8931 32.4244 18.8105 32.3735C18.7182 32.3166 18.3285 32.2658 17.7998 32.2415C17.1431 32.2115 16.8603 32.1676 16.6051 32.0563C16.1819 31.8716 15.7845 31.4943 15.5446 31.0491L15.3573 30.7018V24.8323C15.3573 18.9734 15.3576 18.9622 15.5084 18.6398C15.7011 18.2278 16.1161 17.8176 16.5574 17.6029L16.9034 17.4346L20.382 17.3999C22.2953 17.3808 23.9172 17.3379 23.9863 17.3046C24.1378 17.2316 24.3175 16.9064 24.3175 16.7052C24.3175 16.4756 24.1343 16.1843 23.9329 16.0936C23.7976 16.0326 22.8393 16.0119 20.326 16.0156C17.2889 16.0199 16.8551 16.0342 16.4746 16.1418ZM26.4335 16.1076C25.8243 16.4414 26.0791 17.3999 26.7771 17.3999C27.1332 17.3999 27.4799 17.0605 27.4799 16.712C27.4799 16.1905 26.8968 15.8537 26.4335 16.1076ZM13.9503 24.7975C13.9503 28.0449 13.9589 29.3632 13.9694 27.7271C13.9799 26.091 13.9799 23.4341 13.9694 21.8228C13.9589 20.2116 13.9503 21.5502 13.9503 24.7975ZM19.2576 22.5741C18.5777 22.7935 17.8995 23.5205 17.7018 24.2418C17.5942 24.6343 17.6635 25.3591 17.8492 25.784C18.0395 26.2196 18.6254 26.7914 19.0994 27.0043C19.3576 27.1203 19.5687 27.1543 20.0307 27.1543C20.7657 27.1543 21.1301 27.0093 21.675 26.4999C22.214 25.996 22.3824 25.5914 22.3838 24.7975C22.3848 24.2162 22.368 24.1415 22.1438 23.733C21.8767 23.2459 21.5165 22.9045 21.0241 22.6717C20.6073 22.4747 19.7182 22.4255 19.2576 22.5741ZM26.0041 22.5741C25.3242 22.7935 24.6459 23.5205 24.4483 24.2418C24.3407 24.6343 24.41 25.3591 24.5956 25.784C24.786 26.2196 25.3718 26.7914 25.8459 27.0043C26.1041 27.1203 26.3151 27.1543 26.7771 27.1543C27.5122 27.1543 27.8765 27.0093 28.4214 26.4999C28.9604 25.996 29.1289 25.5914 29.1303 24.7975C29.1313 24.2162 29.1144 24.1415 28.8903 23.733C28.6231 23.2459 28.263 22.9045 27.7705 22.6717C27.3538 22.4747 26.4647 22.4255 26.0041 22.5741ZM32.7505 22.5741C32.0706 22.7935 31.3924 23.5205 31.1947 24.2418C31.0871 24.6343 31.1564 25.3591 31.3421 25.784C31.5325 26.2196 32.1183 26.7914 32.5924 27.0043C32.8505 27.1203 33.0616 27.1543 33.5236 27.1543C34.2587 27.1543 34.623 27.0093 35.1679 26.4999C35.7069 25.996 35.8753 25.5914 35.8768 24.7975C35.8777 24.2162 35.8609 24.1415 35.6368 23.733C35.3696 23.2459 35.0094 22.9045 34.517 22.6717C34.1003 22.4747 33.2111 22.4255 32.7505 22.5741ZM19.5601 23.9957C18.9487 24.3642 18.8913 25.1577 19.4458 25.5757C19.9565 25.9607 20.7485 25.7312 20.9455 25.1411C21.2237 24.308 20.3038 23.5474 19.5601 23.9957ZM26.3066 23.9957C25.6952 24.3642 25.6377 25.1577 26.1923 25.5757C26.7029 25.9607 27.4949 25.7312 27.692 25.1411C27.9701 24.308 27.0503 23.5474 26.3066 23.9957ZM33.053 23.9957C32.4416 24.3642 32.3842 25.1577 32.9387 25.5757C33.4494 25.9607 34.2414 25.7312 34.4384 25.1411C34.7166 24.308 33.7967 23.5474 33.053 23.9957ZM39.6376 28.0912C39.6376 29.5918 39.608 30.6621 39.5601 30.8894C39.3643 31.8202 38.6285 32.7746 37.7591 33.2252C36.9392 33.6501 36.9205 33.6514 30.9729 33.6527L25.5761 33.6539L25.5968 36.2761L25.6176 38.8983L25.8136 39.2929C26.0262 39.7208 26.3313 40.0239 26.7967 40.2697L27.0934 40.4264L32.6132 40.4611C37.5594 40.4923 38.1509 40.5076 38.3055 40.609C38.4025 40.6727 38.8776 41.4093 39.3916 42.2931C39.8941 43.157 40.321 43.8639 40.3403 43.8639C40.3596 43.8639 40.7866 43.157 41.289 42.2931C41.8018 41.4114 42.2782 40.6726 42.3749 40.609C42.522 40.5125 42.8725 40.4908 44.7643 40.4611C46.8959 40.4277 46.9928 40.4204 47.278 40.2697C47.7434 40.0239 48.0485 39.7208 48.2611 39.2929L48.4571 38.8983V33.0635C48.4571 27.2775 48.4559 27.226 48.3091 26.9126C48.1016 26.4691 47.7573 26.1052 47.3391 25.8871L46.9813 25.7005L43.3094 25.6808L39.6376 25.6611V28.0912Z" stroke="black" stroke-width="1.06667" mask="url(#path-2-outside-1_25_5649)"/>
</svg>
