<svg width="80" height="81" viewBox="0 0 80 81" fill="none" xmlns="http://www.w3.org/2000/svg">
<path d="M77.4498 43.8949C79.6404 23.1362 64.6687 4.54062 44.0094 2.3605C23.3501 0.180372 4.82663 15.2413 2.63601 36C0.44539 56.7587 15.4172 75.3543 36.0765 77.5344C56.7357 79.7145 75.2592 64.6536 77.4498 43.8949Z" fill="#EEEEEE"/>
<path d="M76.1814 43.8235C78.2905 23.838 63.8277 5.92979 43.878 3.82454C23.9282 1.71929 6.04606 16.2142 3.93703 36.1997C1.828 56.1853 16.2907 74.0935 36.2405 76.1987C56.1902 78.304 74.0724 63.8091 76.1814 43.8235Z" fill="#F48220"/>
<mask id="mask0_25_5600" style="mask-type:luminance" maskUnits="userSpaceOnUse" x="3" y="3" width="74" height="74">
<path d="M76.0631 43.8109C78.1722 23.8253 63.7094 5.91716 43.7597 3.81191C23.8099 1.70665 5.92778 16.2015 3.81874 36.1871C1.70971 56.1727 16.1725 74.0808 36.1222 76.1861C56.0719 78.2914 73.9541 63.7965 76.0631 43.8109Z" fill="white"/>
</mask>
<g mask="url(#mask0_25_5600)">
<path fill-rule="evenodd" clip-rule="evenodd" d="M14.7382 90.4129L-14.8589 87.2902C-21.0508 86.6375 -25.0252 79.793 -24.3709 73.5844L-16.3801 -2.13191C-15.7258 -8.33715 -10.6501 -11.9368 -4.45658 -11.2841L73.0035 -3.10919L63.1099 5.85392L37.7166 31.2589L28.8924 51.4544L15.8393 69.9078L12.7216 85.2017L14.7382 90.4129Z" fill="#00A650"/>
</g>
<path d="M43.9614 37.3221C45.1329 36.4853 43.7087 35.8277 43.7087 35.8277C41.4395 34.512 38.9685 33.5801 36.3956 33.0698C32.0676 32.1962 27.6151 32.1326 23.2639 32.8823C18.9497 33.704 12.721 45.8601 11.4073 49.2824C10.2359 51.9834 9.12973 54.9605 8.16748 57.8623C10.715 62.4845 14.2703 66.4739 18.5698 69.5348C22.7235 60.4891 28.3188 52.178 35.1372 44.9263C37.7815 42.0659 40.7419 39.5149 43.9614 37.3221Z" fill="white"/>
<path d="M54.8272 21.3334L54.9845 19.8273C55.0193 18.2034 54.5395 16.6102 53.6139 15.2755C50.9631 11.4265 44.3295 10.7002 38.5024 13.0498C37.7953 13.3307 37.1077 13.6583 36.4441 14.0304C33.4005 15.7853 30.991 18.4591 29.5611 21.6682C29.011 22.8419 28.7554 24.132 28.8163 25.4268C28.8772 26.7216 29.2529 27.982 29.9107 29.0989C30.5686 30.2157 31.4887 31.1554 32.5916 31.8365C33.6944 32.5176 34.9467 32.9196 36.2399 33.0076L36.3955 33.0244C40.02 33.2036 43.6325 32.482 46.91 30.9242C48.867 30.0253 50.5955 28.6959 51.9665 27.0351C53.3374 25.3744 54.3154 23.4253 54.8272 21.3334Z" fill="white"/>
<path d="M66.0083 39.6482C63.5885 35.585 56.2654 34.7047 50.3563 37.6735C50.2462 37.7151 50.1403 37.7672 50.0401 37.8291C47.1083 39.4298 44.7293 41.88 43.2156 44.8577C40.8728 49.7827 43.1269 54.999 48.4201 56.0181C48.5412 56.0536 48.6658 56.076 48.7916 56.085C52.216 56.2837 55.6392 55.6755 58.7856 54.3095C63.9232 52.1875 69.2565 45.1639 66.0083 39.6482Z" fill="white"/>
<path d="M54.4467 59.9724C55.7186 59.2395 54.3446 58.6035 54.3229 58.5767C52.4875 57.4573 50.5017 56.6059 48.4255 56.0481C44.391 54.9864 40.1824 54.7586 36.0569 55.3787C33.9818 55.7586 31.3712 58.9131 28.8459 62.2115C26.4948 65.2981 24.3642 68.5465 22.47 71.9327C26.6856 74.2622 31.3245 75.725 36.1138 76.2352C36.6928 76.2972 37.2752 76.3055 37.8492 76.3373C40.7374 72.5229 43.9345 68.9525 47.4081 65.6622C49.5752 63.5542 51.9313 61.6496 54.4467 59.9724Z" fill="white"/>
</svg>
